<svg xmlns="http://www.w3.org/2000/svg" viewBox="0 0 35 35" shape-rendering="crispEdges"><path fill="#ffffff" d="M0 0h35v35H0z"/><path stroke="#3D95CE" d="M1 1.5h7m4 0h1m3 0h1m4 0h3m1 0h1m1 0h7M1 2.5h1m5 0h1m1 0h1m1 0h4m1 0h4m1 0h2m4 0h1m5 0h1M1 3.5h1m1 0h3m1 0h1m1 0h1m1 0h2m1 0h2m3 0h4m2 0h1m1 0h1m1 0h3m1 0h1M1 4.5h1m1 0h3m1 0h1m1 0h2m1 0h1m2 0h3m3 0h4m2 0h1m1 0h3m1 0h1M1 5.5h1m1 0h3m1 0h1m1 0h2m4 0h1m1 0h2m1 0h5m2 0h1m1 0h3m1 0h1M1 6.5h1m5 0h1m1 0h1m4 0h4m3 0h1m1 0h2m2 0h1m5 0h1M1 7.5h7m1 0h1m1 0h1m1 0h1m1 0h1m1 0h1m1 0h1m1 0h1m1 0h1m1 0h1m1 0h7M10 8.5h2m1 0h1m1 0h2m1 0h2m2 0h1m1 0h2M3 9.5h1m2 0h4m1 0h1m1 0h3m2 0h1m1 0h1m1 0h1m3 0h1m1 0h5M4 10.5h1m4 0h3m4 0h1m7 0h1m1 0h3m1 0h2m1 0h1M1 11.5h1m1 0h1m1 0h3m3 0h2m4 0h1m1 0h7m2 0h2m3 0h1M1 12.5h1m2 0h1m4 0h1m5 0h1m3 0h1m3 0h2m1 0h1m1 0h1m1 0h1m2 0h1M2 13.5h1m1 0h2m1 0h2m3 0h3m1 0h1m1 0h1m2 0h3m1 0h1m1 0h1m1 0h1m3 0h1M1 14.5h2m5 0h3m5 0h2m1 0h2m1 0h4m1 0h1m5 0h1M1 15.5h4m2 0h1m1 0h1m1 0h6m2 0h3m2 0h2m3 0h3m1 0h1M1 16.5h2m2 0h1m2 0h1m1 0h2m3 0h1m2 0h1m4 0h5m4 0h2M1 17.5h5m1 0h1m2 0h1m2 0h8m2 0h1m2 0h1m1 0h6M2 18.5h1m2 0h1m3 0h1m1 0h3m3 0h2m1 0h1m1 0h1m1 0h1m1 0h1m1 0h1m2 0h3M1 19.5h1m1 0h7m1 0h1m6 0h1m2 0h1m2 0h1m3 0h5M4 20.5h2m2 0h1m1 0h4m1 0h1m1 0h1m1 0h1m1 0h1m1 0h2m2 0h1m2 0h1m1 0h1M1 21.5h2m2 0h4m2 0h3m3 0h1m1 0h2m3 0h1m3 0h1m4 0h1M2 22.5h3m1 0h1m1 0h1m3 0h1m1 0h1m2 0h4m7 0h1m1 0h1m2 0h1M1 23.5h2m1 0h9m1 0h3m3 0h1m1 0h3m1 0h3m2 0h3M3 24.5h4m1 0h2m2 0h1m1 0h1m3 0h2m2 0h2m4 0h3m1 0h1M1 25.5h4m1 0h2m1 0h3m2 0h1m1 0h1m2 0h1m1 0h1m1 0h8M9 26.5h5m1 0h3m1 0h1m1 0h2m1 0h2m3 0h2m1 0h2M1 27.5h7m1 0h5m3 0h1m2 0h1m3 0h2m1 0h1m1 0h1m1 0h1m1 0h1M1 28.5h1m5 0h1m1 0h1m2 0h3m1 0h4m1 0h2m2 0h1m3 0h1m2 0h2M1 29.5h1m1 0h3m1 0h1m3 0h1m1 0h1m2 0h2m2 0h3m2 0h6M1 30.5h1m1 0h3m1 0h1m3 0h2m1 0h1m1 0h1m1 0h1m2 0h1m3 0h2m1 0h5M1 31.5h1m1 0h3m1 0h1m1 0h1m1 0h2m1 0h1m2 0h4m2 0h2m4 0h2m1 0h2M1 32.5h1m5 0h1m3 0h1m1 0h2m3 0h1m1 0h1m1 0h1m2 0h3m2 0h2M1 33.5h7m2 0h1m1 0h1m1 0h2m3 0h1m4 0h2m3 0h3m1 0h1"/></svg>
